<mxfile host="app.diagrams.net" modified="2023-03-19T14:46:51.389Z" agent="5.0 (Macintosh; Intel Mac OS X 10_15_7) AppleWebKit/537.36 (KHTML, like Gecko) Chrome/111.0.0.0 Safari/537.36" etag="02nPvL6emmfoWOYD0_HM" version="21.0.8" type="github">
  <diagram id="C5RBs43oDa-KdzZeNtuy" name="Page-1">
    <mxGraphModel dx="1242" dy="682" grid="1" gridSize="10" guides="1" tooltips="1" connect="1" arrows="1" fold="1" page="1" pageScale="1" pageWidth="827" pageHeight="1169" math="0" shadow="0">
      <root>
        <mxCell id="WIyWlLk6GJQsqaUBKTNV-0" />
        <mxCell id="WIyWlLk6GJQsqaUBKTNV-1" parent="WIyWlLk6GJQsqaUBKTNV-0" />
        <mxCell id="iav6dm8dek-00uAtM0eb-24" style="edgeStyle=orthogonalEdgeStyle;rounded=0;orthogonalLoop=1;jettySize=auto;html=1;entryX=0.5;entryY=0;entryDx=0;entryDy=0;" edge="1" parent="WIyWlLk6GJQsqaUBKTNV-1" source="iav6dm8dek-00uAtM0eb-1" target="iav6dm8dek-00uAtM0eb-2">
          <mxGeometry relative="1" as="geometry" />
        </mxCell>
        <mxCell id="iav6dm8dek-00uAtM0eb-1" value="开始" style="ellipse;whiteSpace=wrap;html=1;" vertex="1" parent="WIyWlLk6GJQsqaUBKTNV-1">
          <mxGeometry x="345" y="100" width="76" height="50" as="geometry" />
        </mxCell>
        <mxCell id="iav6dm8dek-00uAtM0eb-25" style="edgeStyle=orthogonalEdgeStyle;rounded=0;orthogonalLoop=1;jettySize=auto;html=1;entryX=0.5;entryY=0;entryDx=0;entryDy=0;" edge="1" parent="WIyWlLk6GJQsqaUBKTNV-1" source="iav6dm8dek-00uAtM0eb-2" target="iav6dm8dek-00uAtM0eb-3">
          <mxGeometry relative="1" as="geometry" />
        </mxCell>
        <mxCell id="iav6dm8dek-00uAtM0eb-2" value="增量指定数量的无效订单" style="rounded=1;whiteSpace=wrap;html=1;" vertex="1" parent="WIyWlLk6GJQsqaUBKTNV-1">
          <mxGeometry x="330" y="190" width="106" height="40" as="geometry" />
        </mxCell>
        <mxCell id="iav6dm8dek-00uAtM0eb-26" style="edgeStyle=orthogonalEdgeStyle;rounded=0;orthogonalLoop=1;jettySize=auto;html=1;exitX=0.5;exitY=1;exitDx=0;exitDy=0;entryX=0.5;entryY=0;entryDx=0;entryDy=0;" edge="1" parent="WIyWlLk6GJQsqaUBKTNV-1" source="iav6dm8dek-00uAtM0eb-3" target="iav6dm8dek-00uAtM0eb-7">
          <mxGeometry relative="1" as="geometry" />
        </mxCell>
        <mxCell id="iav6dm8dek-00uAtM0eb-3" value="将指定数量的增量无效单变为有效单" style="rounded=1;whiteSpace=wrap;html=1;" vertex="1" parent="WIyWlLk6GJQsqaUBKTNV-1">
          <mxGeometry x="330" y="270" width="106" height="40" as="geometry" />
        </mxCell>
        <mxCell id="iav6dm8dek-00uAtM0eb-13" style="edgeStyle=orthogonalEdgeStyle;rounded=0;orthogonalLoop=1;jettySize=auto;html=1;entryX=0.5;entryY=0;entryDx=0;entryDy=0;" edge="1" parent="WIyWlLk6GJQsqaUBKTNV-1" source="iav6dm8dek-00uAtM0eb-5" target="iav6dm8dek-00uAtM0eb-11">
          <mxGeometry relative="1" as="geometry" />
        </mxCell>
        <mxCell id="iav6dm8dek-00uAtM0eb-5" value="将指定数量的增量有效单变为激活单" style="rounded=1;whiteSpace=wrap;html=1;" vertex="1" parent="WIyWlLk6GJQsqaUBKTNV-1">
          <mxGeometry x="330" y="450" width="106" height="40" as="geometry" />
        </mxCell>
        <mxCell id="iav6dm8dek-00uAtM0eb-29" style="edgeStyle=orthogonalEdgeStyle;rounded=0;orthogonalLoop=1;jettySize=auto;html=1;" edge="1" parent="WIyWlLk6GJQsqaUBKTNV-1" source="iav6dm8dek-00uAtM0eb-6" target="iav6dm8dek-00uAtM0eb-28">
          <mxGeometry relative="1" as="geometry" />
        </mxCell>
        <mxCell id="iav6dm8dek-00uAtM0eb-6" value="新增量订单入库" style="rounded=1;whiteSpace=wrap;html=1;" vertex="1" parent="WIyWlLk6GJQsqaUBKTNV-1">
          <mxGeometry x="330" y="660" width="106" height="40" as="geometry" />
        </mxCell>
        <mxCell id="iav6dm8dek-00uAtM0eb-10" value="否" style="edgeStyle=orthogonalEdgeStyle;rounded=0;orthogonalLoop=1;jettySize=auto;html=1;entryX=0;entryY=0.5;entryDx=0;entryDy=0;" edge="1" parent="WIyWlLk6GJQsqaUBKTNV-1" source="iav6dm8dek-00uAtM0eb-7" target="iav6dm8dek-00uAtM0eb-8">
          <mxGeometry relative="1" as="geometry" />
        </mxCell>
        <mxCell id="iav6dm8dek-00uAtM0eb-12" style="edgeStyle=orthogonalEdgeStyle;rounded=0;orthogonalLoop=1;jettySize=auto;html=1;entryX=0.5;entryY=0;entryDx=0;entryDy=0;" edge="1" parent="WIyWlLk6GJQsqaUBKTNV-1" source="iav6dm8dek-00uAtM0eb-7" target="iav6dm8dek-00uAtM0eb-5">
          <mxGeometry relative="1" as="geometry" />
        </mxCell>
        <mxCell id="iav6dm8dek-00uAtM0eb-15" value="是" style="edgeLabel;html=1;align=center;verticalAlign=middle;resizable=0;points=[];" vertex="1" connectable="0" parent="iav6dm8dek-00uAtM0eb-12">
          <mxGeometry x="0.26" relative="1" as="geometry">
            <mxPoint as="offset" />
          </mxGeometry>
        </mxCell>
        <mxCell id="iav6dm8dek-00uAtM0eb-7" value="有效单比例值是否达到设定值" style="rhombus;whiteSpace=wrap;html=1;" vertex="1" parent="WIyWlLk6GJQsqaUBKTNV-1">
          <mxGeometry x="343" y="330" width="80" height="80" as="geometry" />
        </mxCell>
        <mxCell id="iav6dm8dek-00uAtM0eb-23" style="edgeStyle=orthogonalEdgeStyle;rounded=0;orthogonalLoop=1;jettySize=auto;html=1;entryX=1;entryY=0.5;entryDx=0;entryDy=0;" edge="1" parent="WIyWlLk6GJQsqaUBKTNV-1" source="iav6dm8dek-00uAtM0eb-8" target="iav6dm8dek-00uAtM0eb-5">
          <mxGeometry relative="1" as="geometry">
            <Array as="points">
              <mxPoint x="540" y="470" />
            </Array>
          </mxGeometry>
        </mxCell>
        <mxCell id="iav6dm8dek-00uAtM0eb-8" value="将数据库指定数量的真实无效单变为有效单" style="rounded=1;whiteSpace=wrap;html=1;" vertex="1" parent="WIyWlLk6GJQsqaUBKTNV-1">
          <mxGeometry x="490" y="350" width="130" height="40" as="geometry" />
        </mxCell>
        <mxCell id="iav6dm8dek-00uAtM0eb-18" style="edgeStyle=orthogonalEdgeStyle;rounded=0;orthogonalLoop=1;jettySize=auto;html=1;entryX=0;entryY=0.5;entryDx=0;entryDy=0;" edge="1" parent="WIyWlLk6GJQsqaUBKTNV-1" source="iav6dm8dek-00uAtM0eb-11" target="iav6dm8dek-00uAtM0eb-17">
          <mxGeometry relative="1" as="geometry" />
        </mxCell>
        <mxCell id="iav6dm8dek-00uAtM0eb-21" value="是" style="edgeLabel;html=1;align=center;verticalAlign=middle;resizable=0;points=[];" vertex="1" connectable="0" parent="iav6dm8dek-00uAtM0eb-18">
          <mxGeometry x="-0.1343" y="2" relative="1" as="geometry">
            <mxPoint y="1" as="offset" />
          </mxGeometry>
        </mxCell>
        <mxCell id="iav6dm8dek-00uAtM0eb-19" style="edgeStyle=orthogonalEdgeStyle;rounded=0;orthogonalLoop=1;jettySize=auto;html=1;" edge="1" parent="WIyWlLk6GJQsqaUBKTNV-1" source="iav6dm8dek-00uAtM0eb-11" target="iav6dm8dek-00uAtM0eb-6">
          <mxGeometry relative="1" as="geometry" />
        </mxCell>
        <mxCell id="iav6dm8dek-00uAtM0eb-20" value="否" style="edgeLabel;html=1;align=center;verticalAlign=middle;resizable=0;points=[];" vertex="1" connectable="0" parent="iav6dm8dek-00uAtM0eb-19">
          <mxGeometry x="-0.3" y="-1" relative="1" as="geometry">
            <mxPoint as="offset" />
          </mxGeometry>
        </mxCell>
        <mxCell id="iav6dm8dek-00uAtM0eb-11" value="激活单比例值是否达到设定值" style="rhombus;whiteSpace=wrap;html=1;" vertex="1" parent="WIyWlLk6GJQsqaUBKTNV-1">
          <mxGeometry x="343" y="530" width="80" height="80" as="geometry" />
        </mxCell>
        <mxCell id="iav6dm8dek-00uAtM0eb-22" style="edgeStyle=orthogonalEdgeStyle;rounded=0;orthogonalLoop=1;jettySize=auto;html=1;entryX=1;entryY=0.5;entryDx=0;entryDy=0;" edge="1" parent="WIyWlLk6GJQsqaUBKTNV-1" source="iav6dm8dek-00uAtM0eb-17" target="iav6dm8dek-00uAtM0eb-6">
          <mxGeometry relative="1" as="geometry">
            <Array as="points">
              <mxPoint x="540" y="680" />
            </Array>
          </mxGeometry>
        </mxCell>
        <mxCell id="iav6dm8dek-00uAtM0eb-17" value="将数据库指定数量的真实无效单变为有效单" style="rounded=1;whiteSpace=wrap;html=1;" vertex="1" parent="WIyWlLk6GJQsqaUBKTNV-1">
          <mxGeometry x="490" y="550" width="130" height="40" as="geometry" />
        </mxCell>
        <mxCell id="iav6dm8dek-00uAtM0eb-28" value="结束" style="ellipse;whiteSpace=wrap;html=1;" vertex="1" parent="WIyWlLk6GJQsqaUBKTNV-1">
          <mxGeometry x="345" y="750" width="76" height="50" as="geometry" />
        </mxCell>
      </root>
    </mxGraphModel>
  </diagram>
</mxfile>
